<mxfile host="app.diagrams.net" modified="2024-03-07T11:39:38.387Z" agent="Mozilla/5.0 (Windows NT 10.0; Win64; x64) AppleWebKit/537.36 (KHTML, like Gecko) Chrome/122.0.0.0 Safari/537.36" etag="KdYUds81C1hEEnL60Vm6" version="24.0.1" type="device" pages="3">
  <diagram id="R2lEEEUBdFMjLlhIrx00" name="ex_3_3a">
    <mxGraphModel dx="1562" dy="800" grid="1" gridSize="10" guides="1" tooltips="1" connect="1" arrows="1" fold="1" page="1" pageScale="1" pageWidth="850" pageHeight="1100" math="0" shadow="0" extFonts="Permanent Marker^https://fonts.googleapis.com/css?family=Permanent+Marker">
      <root>
        <mxCell id="0" />
        <mxCell id="1" parent="0" />
        <mxCell id="DdvRY2VXiHQ6DfF-Mzje-36" value="&lt;b&gt;Fornecedor&lt;/b&gt;" style="text;strokeColor=none;fillColor=none;html=1;align=center;verticalAlign=middle;whiteSpace=wrap;rounded=0;fontSize=18;" parent="1" vertex="1">
          <mxGeometry x="60" y="510" width="100" height="50" as="geometry" />
        </mxCell>
        <mxCell id="DdvRY2VXiHQ6DfF-Mzje-40" value="&lt;b&gt;Encomenda&lt;/b&gt;" style="text;strokeColor=none;fillColor=none;html=1;align=center;verticalAlign=middle;whiteSpace=wrap;rounded=0;fontSize=18;" parent="1" vertex="1">
          <mxGeometry x="60" y="360" width="100" height="50" as="geometry" />
        </mxCell>
        <mxCell id="DdvRY2VXiHQ6DfF-Mzje-41" value="&lt;b&gt;Items&lt;/b&gt;" style="text;strokeColor=none;fillColor=none;html=1;align=center;verticalAlign=middle;whiteSpace=wrap;rounded=0;fontSize=18;" parent="1" vertex="1">
          <mxGeometry x="40" y="200" width="100" height="50" as="geometry" />
        </mxCell>
        <mxCell id="DdvRY2VXiHQ6DfF-Mzje-42" value="&lt;b&gt;Produtos&lt;/b&gt;" style="text;strokeColor=none;fillColor=none;html=1;align=center;verticalAlign=middle;whiteSpace=wrap;rounded=0;fontSize=18;" parent="1" vertex="1">
          <mxGeometry x="50" y="40" width="100" height="50" as="geometry" />
        </mxCell>
        <mxCell id="DdvRY2VXiHQ6DfF-Mzje-43" value="&lt;b&gt;Tipo Fornecedor&lt;/b&gt;" style="text;strokeColor=none;fillColor=none;html=1;align=center;verticalAlign=middle;whiteSpace=wrap;rounded=0;fontSize=18;" parent="1" vertex="1">
          <mxGeometry x="60" y="680" width="150" height="50" as="geometry" />
        </mxCell>
        <mxCell id="DdvRY2VXiHQ6DfF-Mzje-44" value="&lt;b&gt;CondicoesPagamento&lt;/b&gt;" style="text;strokeColor=none;fillColor=none;html=1;align=center;verticalAlign=middle;whiteSpace=wrap;rounded=0;fontSize=18;" parent="1" vertex="1">
          <mxGeometry x="70" y="840" width="170" height="50" as="geometry" />
        </mxCell>
        <mxCell id="JeP8ggOP0piWA_SzPK6s-1" value="&lt;font style=&quot;font-size: 18px;&quot;&gt;&lt;u&gt;Codigo&lt;/u&gt;&lt;/font&gt;" style="rounded=0;whiteSpace=wrap;html=1;fontSize=18;" parent="1" vertex="1">
          <mxGeometry x="60" y="80" width="100" height="40" as="geometry" />
        </mxCell>
        <mxCell id="JeP8ggOP0piWA_SzPK6s-4" value="&lt;font style=&quot;font-size: 18px;&quot;&gt;&lt;u&gt;Produto_Codigo+Encomenda_Numero(PK)(FK)&lt;/u&gt;&lt;/font&gt;" style="rounded=0;whiteSpace=wrap;html=1;fontSize=18;" parent="1" vertex="1">
          <mxGeometry x="60" y="240" width="400" height="40" as="geometry" />
        </mxCell>
        <mxCell id="JeP8ggOP0piWA_SzPK6s-5" value="&lt;font style=&quot;font-size: 18px;&quot;&gt;&lt;u&gt;Numero&lt;/u&gt;&lt;/font&gt;" style="rounded=0;whiteSpace=wrap;html=1;fontSize=18;" parent="1" vertex="1">
          <mxGeometry x="60" y="400" width="100" height="40" as="geometry" />
        </mxCell>
        <mxCell id="JeP8ggOP0piWA_SzPK6s-6" value="&lt;font style=&quot;font-size: 18px;&quot;&gt;&lt;u&gt;NIF&lt;/u&gt;&lt;/font&gt;" style="rounded=0;whiteSpace=wrap;html=1;fontSize=18;" parent="1" vertex="1">
          <mxGeometry x="60" y="550" width="100" height="40" as="geometry" />
        </mxCell>
        <mxCell id="JeP8ggOP0piWA_SzPK6s-7" value="&lt;font style=&quot;font-size: 18px;&quot;&gt;&lt;u&gt;Codigo&lt;/u&gt;&lt;/font&gt;" style="rounded=0;whiteSpace=wrap;html=1;fontSize=18;" parent="1" vertex="1">
          <mxGeometry x="60" y="720" width="100" height="40" as="geometry" />
        </mxCell>
        <mxCell id="JeP8ggOP0piWA_SzPK6s-8" style="edgeStyle=none;curved=1;rounded=0;orthogonalLoop=1;jettySize=auto;html=1;exitX=0.5;exitY=1;exitDx=0;exitDy=0;fontSize=12;startSize=8;endSize=8;" parent="1" source="JeP8ggOP0piWA_SzPK6s-4" target="JeP8ggOP0piWA_SzPK6s-4" edge="1">
          <mxGeometry relative="1" as="geometry" />
        </mxCell>
        <mxCell id="JeP8ggOP0piWA_SzPK6s-9" value="&lt;font style=&quot;font-size: 18px;&quot;&gt;&lt;u&gt;Codigo&lt;/u&gt;&lt;/font&gt;" style="rounded=0;whiteSpace=wrap;html=1;fontSize=18;" parent="1" vertex="1">
          <mxGeometry x="60" y="880" width="100" height="40" as="geometry" />
        </mxCell>
        <mxCell id="JeP8ggOP0piWA_SzPK6s-10" value="Nome" style="rounded=0;whiteSpace=wrap;html=1;fontSize=18;" parent="1" vertex="1">
          <mxGeometry x="160" y="80" width="100" height="40" as="geometry" />
        </mxCell>
        <mxCell id="JeP8ggOP0piWA_SzPK6s-11" value="Designacao" style="rounded=0;whiteSpace=wrap;html=1;fontSize=18;" parent="1" vertex="1">
          <mxGeometry x="160" y="880" width="110" height="40" as="geometry" />
        </mxCell>
        <mxCell id="JeP8ggOP0piWA_SzPK6s-12" value="Designacao" style="rounded=0;whiteSpace=wrap;html=1;fontSize=18;" parent="1" vertex="1">
          <mxGeometry x="160" y="720" width="110" height="40" as="geometry" />
        </mxCell>
        <mxCell id="JeP8ggOP0piWA_SzPK6s-13" value="Nome&lt;span style=&quot;color: rgba(0, 0, 0, 0); font-family: monospace; font-size: 0px; text-align: start; text-wrap: nowrap;&quot;&gt;%3CmxGraphModel%3E%3Croot%3E%3CmxCell%20id%3D%220%22%2F%3E%3CmxCell%20id%3D%221%22%20parent%3D%220%22%2F%3E%3CmxCell%20id%3D%222%22%20style%3D%22edgeStyle%3Dnone%3Bcurved%3D1%3Brounded%3D0%3BorthogonalLoop%3D1%3BjettySize%3Dauto%3Bhtml%3D1%3BexitX%3D1%3BexitY%3D0.5%3BexitDx%3D0%3BexitDy%3D0%3BfontSize%3D12%3BstartSize%3D8%3BendSize%3D8%3B%22%20edge%3D%221%22%20parent%3D%221%22%3E%3CmxGeometry%20relative%3D%221%22%20as%3D%22geometry%22%3E%3CmxPoint%20x%3D%22380%22%20y%3D%22420.33333333333326%22%20as%3D%22targetPoint%22%2F%3E%3CmxPoint%20x%3D%22340%22%20y%3D%22420%22%20as%3D%22sourcePoint%22%2F%3E%3C%2FmxGeometry%3E%3C%2FmxCell%3E%3C%2Froot%3E%3C%2FmxGraphModel%3E&lt;/span&gt;" style="rounded=0;whiteSpace=wrap;html=1;fontSize=18;" parent="1" vertex="1">
          <mxGeometry x="160" y="550" width="100" height="40" as="geometry" />
        </mxCell>
        <mxCell id="JeP8ggOP0piWA_SzPK6s-14" value="Fornecedor_Codigo(FK)" style="rounded=0;whiteSpace=wrap;html=1;fontSize=18;" parent="1" vertex="1">
          <mxGeometry x="260" y="400" width="200" height="40" as="geometry" />
        </mxCell>
        <mxCell id="JeP8ggOP0piWA_SzPK6s-15" value="Data" style="rounded=0;whiteSpace=wrap;html=1;fontSize=18;" parent="1" vertex="1">
          <mxGeometry x="160" y="400" width="100" height="40" as="geometry" />
        </mxCell>
        <mxCell id="JeP8ggOP0piWA_SzPK6s-16" value="Quantidade" style="rounded=0;whiteSpace=wrap;html=1;fontSize=18;" parent="1" vertex="1">
          <mxGeometry x="460" y="240" width="110" height="40" as="geometry" />
        </mxCell>
        <mxCell id="JeP8ggOP0piWA_SzPK6s-18" value="Unidades" style="rounded=0;whiteSpace=wrap;html=1;fontSize=18;" parent="1" vertex="1">
          <mxGeometry x="460" y="80" width="100" height="40" as="geometry" />
        </mxCell>
        <mxCell id="JeP8ggOP0piWA_SzPK6s-19" value="TaxaIVA" style="rounded=0;whiteSpace=wrap;html=1;fontSize=18;" parent="1" vertex="1">
          <mxGeometry x="360" y="80" width="100" height="40" as="geometry" />
        </mxCell>
        <mxCell id="JeP8ggOP0piWA_SzPK6s-20" value="Preco" style="rounded=0;whiteSpace=wrap;html=1;fontSize=18;" parent="1" vertex="1">
          <mxGeometry x="260" y="80" width="100" height="40" as="geometry" />
        </mxCell>
        <mxCell id="JeP8ggOP0piWA_SzPK6s-24" value="Morada" style="rounded=0;whiteSpace=wrap;html=1;fontSize=18;" parent="1" vertex="1">
          <mxGeometry x="260" y="550" width="100" height="40" as="geometry" />
        </mxCell>
        <mxCell id="JeP8ggOP0piWA_SzPK6s-26" value="Email" style="rounded=0;whiteSpace=wrap;html=1;fontSize=18;" parent="1" vertex="1">
          <mxGeometry x="360" y="550" width="100" height="40" as="geometry" />
        </mxCell>
        <mxCell id="JeP8ggOP0piWA_SzPK6s-27" value="CondPag_Codigo(FK1)" style="rounded=0;whiteSpace=wrap;html=1;fontSize=18;" parent="1" vertex="1">
          <mxGeometry x="460" y="550" width="190" height="40" as="geometry" />
        </mxCell>
        <mxCell id="JeP8ggOP0piWA_SzPK6s-28" value="TipoForn_Codigo(FK2)" style="rounded=0;whiteSpace=wrap;html=1;fontSize=18;" parent="1" vertex="1">
          <mxGeometry x="650" y="550" width="190" height="40" as="geometry" />
        </mxCell>
      </root>
    </mxGraphModel>
  </diagram>
  <diagram id="1F_9UQr6CnxxSoM02HCP" name="ex_3_1c">
    <mxGraphModel dx="1562" dy="800" grid="1" gridSize="10" guides="1" tooltips="1" connect="1" arrows="1" fold="1" page="1" pageScale="1" pageWidth="827" pageHeight="1169" math="0" shadow="0">
      <root>
        <mxCell id="0" />
        <mxCell id="1" parent="0" />
        <mxCell id="dKV6OIbtL0HbY0MgE-b8-28" value="&lt;b&gt;Veiculo&lt;/b&gt;" style="text;strokeColor=none;fillColor=none;html=1;align=center;verticalAlign=middle;whiteSpace=wrap;rounded=0;fontSize=18;" parent="1" vertex="1">
          <mxGeometry x="44.86000000000001" y="480" width="100" height="50" as="geometry" />
        </mxCell>
        <mxCell id="dKV6OIbtL0HbY0MgE-b8-29" value="&lt;b&gt;Balcao&lt;/b&gt;" style="text;strokeColor=none;fillColor=none;html=1;align=center;verticalAlign=middle;whiteSpace=wrap;rounded=0;fontSize=18;" parent="1" vertex="1">
          <mxGeometry x="44.86000000000001" y="320" width="100" height="50" as="geometry" />
        </mxCell>
        <mxCell id="dKV6OIbtL0HbY0MgE-b8-30" value="&lt;b&gt;Aluguer&lt;/b&gt;" style="text;strokeColor=none;fillColor=none;html=1;align=center;verticalAlign=middle;whiteSpace=wrap;rounded=0;fontSize=18;" parent="1" vertex="1">
          <mxGeometry x="49.86000000000001" width="100" height="50" as="geometry" />
        </mxCell>
        <mxCell id="dKV6OIbtL0HbY0MgE-b8-31" value="&lt;b&gt;Cliente&lt;/b&gt;" style="text;strokeColor=none;fillColor=none;html=1;align=center;verticalAlign=middle;whiteSpace=wrap;rounded=0;fontSize=18;" parent="1" vertex="1">
          <mxGeometry x="39.86" y="160" width="100" height="50" as="geometry" />
        </mxCell>
        <mxCell id="dKV6OIbtL0HbY0MgE-b8-32" value="&lt;b&gt;Tipo_Veiculo&lt;/b&gt;" style="text;strokeColor=none;fillColor=none;html=1;align=center;verticalAlign=middle;whiteSpace=wrap;rounded=0;fontSize=18;" parent="1" vertex="1">
          <mxGeometry x="49.86000000000001" y="1080" width="150" height="50" as="geometry" />
        </mxCell>
        <mxCell id="dKV6OIbtL0HbY0MgE-b8-33" value="&lt;b&gt;Ligeiro&lt;/b&gt;" style="text;strokeColor=none;fillColor=none;html=1;align=center;verticalAlign=middle;whiteSpace=wrap;rounded=0;fontSize=18;" parent="1" vertex="1">
          <mxGeometry x="39.86" y="800" width="110" height="50" as="geometry" />
        </mxCell>
        <mxCell id="dKV6OIbtL0HbY0MgE-b8-34" value="&lt;font style=&quot;font-size: 18px;&quot;&gt;&lt;u&gt;NIF&lt;/u&gt;&lt;/font&gt;" style="rounded=0;whiteSpace=wrap;html=1;fontSize=18;" parent="1" vertex="1">
          <mxGeometry x="59.86000000000001" y="200" width="100" height="40" as="geometry" />
        </mxCell>
        <mxCell id="dKV6OIbtL0HbY0MgE-b8-35" value="&lt;font style=&quot;font-size: 18px;&quot;&gt;&lt;u&gt;Numero&lt;/u&gt;&lt;/font&gt;" style="rounded=0;whiteSpace=wrap;html=1;fontSize=18;" parent="1" vertex="1">
          <mxGeometry x="59.86000000000001" y="40" width="90" height="40" as="geometry" />
        </mxCell>
        <mxCell id="dKV6OIbtL0HbY0MgE-b8-36" value="&lt;font style=&quot;font-size: 18px;&quot;&gt;&lt;u&gt;Numero&lt;/u&gt;&lt;/font&gt;" style="rounded=0;whiteSpace=wrap;html=1;fontSize=18;" parent="1" vertex="1">
          <mxGeometry x="59.86000000000001" y="360" width="100" height="40" as="geometry" />
        </mxCell>
        <mxCell id="dKV6OIbtL0HbY0MgE-b8-37" value="&lt;font style=&quot;font-size: 18px;&quot;&gt;&lt;u&gt;Matricula&lt;/u&gt;&lt;/font&gt;" style="rounded=0;whiteSpace=wrap;html=1;fontSize=18;" parent="1" vertex="1">
          <mxGeometry x="59.86000000000001" y="520" width="100" height="40" as="geometry" />
        </mxCell>
        <mxCell id="dKV6OIbtL0HbY0MgE-b8-38" value="&lt;font style=&quot;font-size: 18px;&quot;&gt;&lt;u&gt;Codigo&lt;/u&gt;&lt;/font&gt;" style="rounded=0;whiteSpace=wrap;html=1;fontSize=18;" parent="1" vertex="1">
          <mxGeometry x="64.86000000000001" y="1118" width="100" height="40" as="geometry" />
        </mxCell>
        <mxCell id="dKV6OIbtL0HbY0MgE-b8-39" style="edgeStyle=none;curved=1;rounded=0;orthogonalLoop=1;jettySize=auto;html=1;exitX=0.5;exitY=1;exitDx=0;exitDy=0;fontSize=12;startSize=8;endSize=8;" parent="1" source="dKV6OIbtL0HbY0MgE-b8-35" target="dKV6OIbtL0HbY0MgE-b8-35" edge="1">
          <mxGeometry relative="1" as="geometry" />
        </mxCell>
        <mxCell id="dKV6OIbtL0HbY0MgE-b8-40" value="&lt;font style=&quot;font-size: 18px;&quot;&gt;NumLugares&lt;/font&gt;" style="rounded=0;whiteSpace=wrap;html=1;fontSize=18;" parent="1" vertex="1">
          <mxGeometry x="299.86" y="840" width="120" height="40" as="geometry" />
        </mxCell>
        <mxCell id="dKV6OIbtL0HbY0MgE-b8-41" value="Endereco" style="rounded=0;whiteSpace=wrap;html=1;fontSize=18;" parent="1" vertex="1">
          <mxGeometry x="159.86" y="200" width="100" height="40" as="geometry" />
        </mxCell>
        <mxCell id="dKV6OIbtL0HbY0MgE-b8-42" value="Portas" style="rounded=0;whiteSpace=wrap;html=1;fontSize=18;" parent="1" vertex="1">
          <mxGeometry x="419.86" y="840" width="80" height="40" as="geometry" />
        </mxCell>
        <mxCell id="dKV6OIbtL0HbY0MgE-b8-43" value="Designacao" style="rounded=0;whiteSpace=wrap;html=1;fontSize=18;" parent="1" vertex="1">
          <mxGeometry x="164.86" y="1118" width="110" height="40" as="geometry" />
        </mxCell>
        <mxCell id="dKV6OIbtL0HbY0MgE-b8-44" value="Marca" style="rounded=0;whiteSpace=wrap;html=1;fontSize=18;" parent="1" vertex="1">
          <mxGeometry x="159.86" y="520" width="100" height="40" as="geometry" />
        </mxCell>
        <mxCell id="dKV6OIbtL0HbY0MgE-b8-45" value="Endereco" style="rounded=0;whiteSpace=wrap;html=1;fontSize=18;" parent="1" vertex="1">
          <mxGeometry x="259.86" y="360" width="120" height="40" as="geometry" />
        </mxCell>
        <mxCell id="dKV6OIbtL0HbY0MgE-b8-46" value="Nome" style="rounded=0;whiteSpace=wrap;html=1;fontSize=18;" parent="1" vertex="1">
          <mxGeometry x="159.86" y="360" width="100" height="40" as="geometry" />
        </mxCell>
        <mxCell id="dKV6OIbtL0HbY0MgE-b8-47" value="Data" style="rounded=0;whiteSpace=wrap;html=1;fontSize=18;" parent="1" vertex="1">
          <mxGeometry x="149.86" y="40" width="70" height="40" as="geometry" />
        </mxCell>
        <mxCell id="dKV6OIbtL0HbY0MgE-b8-49" value="Num_Carta" style="rounded=0;whiteSpace=wrap;html=1;fontSize=18;" parent="1" vertex="1">
          <mxGeometry x="359.86" y="200" width="100" height="40" as="geometry" />
        </mxCell>
        <mxCell id="dKV6OIbtL0HbY0MgE-b8-50" value="Nome" style="rounded=0;whiteSpace=wrap;html=1;fontSize=18;" parent="1" vertex="1">
          <mxGeometry x="259.86" y="200" width="100" height="40" as="geometry" />
        </mxCell>
        <mxCell id="dKV6OIbtL0HbY0MgE-b8-51" value="Ano" style="rounded=0;whiteSpace=wrap;html=1;fontSize=18;" parent="1" vertex="1">
          <mxGeometry x="259.86" y="520" width="100" height="40" as="geometry" />
        </mxCell>
        <mxCell id="dKV6OIbtL0HbY0MgE-b8-57" value="&lt;b&gt;Pesado&lt;/b&gt;" style="text;strokeColor=none;fillColor=none;html=1;align=center;verticalAlign=middle;whiteSpace=wrap;rounded=0;fontSize=18;" parent="1" vertex="1">
          <mxGeometry x="49.86000000000001" y="930" width="100" height="50" as="geometry" />
        </mxCell>
        <mxCell id="dKV6OIbtL0HbY0MgE-b8-58" value="&lt;font style=&quot;font-size: 18px;&quot;&gt;Peso&lt;/font&gt;" style="rounded=0;whiteSpace=wrap;html=1;fontSize=18;" parent="1" vertex="1">
          <mxGeometry x="299.86" y="970" width="75" height="40" as="geometry" />
        </mxCell>
        <mxCell id="dKV6OIbtL0HbY0MgE-b8-59" value="Passageiros" style="rounded=0;whiteSpace=wrap;html=1;fontSize=18;" parent="1" vertex="1">
          <mxGeometry x="374.86" y="970" width="110" height="40" as="geometry" />
        </mxCell>
        <mxCell id="dKV6OIbtL0HbY0MgE-b8-60" value="&lt;b&gt;Similaridade&lt;/b&gt;" style="text;strokeColor=none;fillColor=none;html=1;align=center;verticalAlign=middle;whiteSpace=wrap;rounded=0;fontSize=18;" parent="1" vertex="1">
          <mxGeometry x="59.86000000000001" y="640" width="110" height="50" as="geometry" />
        </mxCell>
        <mxCell id="dKV6OIbtL0HbY0MgE-b8-61" value="&lt;font style=&quot;font-size: 18px;&quot;&gt;&lt;u&gt;Codigo&lt;/u&gt;&lt;/font&gt;" style="rounded=0;whiteSpace=wrap;html=1;fontSize=18;" parent="1" vertex="1">
          <mxGeometry x="59.86000000000001" y="680" width="100" height="40" as="geometry" />
        </mxCell>
        <mxCell id="dKV6OIbtL0HbY0MgE-b8-62" value="Designacao" style="rounded=0;whiteSpace=wrap;html=1;fontSize=18;" parent="1" vertex="1">
          <mxGeometry x="159.86" y="680" width="110" height="40" as="geometry" />
        </mxCell>
        <mxCell id="dKV6OIbtL0HbY0MgE-b8-63" value="" style="endArrow=classic;html=1;rounded=0;fontSize=12;startSize=8;endSize=8;edgeStyle=orthogonalEdgeStyle;exitX=0.5;exitY=1;exitDx=0;exitDy=0;" parent="1" source="dKV6OIbtL0HbY0MgE-b8-80" edge="1">
          <mxGeometry width="50" height="50" relative="1" as="geometry">
            <mxPoint x="449.86" y="269.92999999999995" as="sourcePoint" />
            <mxPoint x="149.86" y="360" as="targetPoint" />
            <Array as="points">
              <mxPoint x="524.8599999999999" y="320" />
              <mxPoint x="149.86" y="320" />
              <mxPoint x="149.86" y="360" />
            </Array>
          </mxGeometry>
        </mxCell>
        <mxCell id="dKV6OIbtL0HbY0MgE-b8-64" value="" style="endArrow=classic;html=1;rounded=0;fontSize=12;startSize=8;endSize=8;edgeStyle=orthogonalEdgeStyle;exitX=0.5;exitY=1;exitDx=0;exitDy=0;entryX=1;entryY=0.75;entryDx=0;entryDy=0;" parent="1" source="dKV6OIbtL0HbY0MgE-b8-81" target="dKV6OIbtL0HbY0MgE-b8-28" edge="1">
          <mxGeometry width="50" height="50" relative="1" as="geometry">
            <mxPoint x="629.8599999999999" y="479.93" as="sourcePoint" />
            <mxPoint x="579.8599999999999" y="529.9300000000001" as="targetPoint" />
            <Array as="points">
              <mxPoint x="704.8599999999999" y="480" />
              <mxPoint x="144.86" y="480" />
            </Array>
          </mxGeometry>
        </mxCell>
        <mxCell id="dKV6OIbtL0HbY0MgE-b8-65" value="" style="endArrow=classic;html=1;rounded=0;fontSize=12;startSize=8;endSize=8;edgeStyle=orthogonalEdgeStyle;entryX=0.75;entryY=0;entryDx=0;entryDy=0;exitX=0.5;exitY=1;exitDx=0;exitDy=0;" parent="1" source="dKV6OIbtL0HbY0MgE-b8-79" target="dKV6OIbtL0HbY0MgE-b8-34" edge="1">
          <mxGeometry width="50" height="50" relative="1" as="geometry">
            <mxPoint x="319.86" y="100" as="sourcePoint" />
            <mxPoint x="269.86" y="150" as="targetPoint" />
            <Array as="points">
              <mxPoint x="369.86" y="150" />
              <mxPoint x="134.86" y="150" />
            </Array>
          </mxGeometry>
        </mxCell>
        <mxCell id="dKV6OIbtL0HbY0MgE-b8-66" value="" style="endArrow=classic;html=1;rounded=0;fontSize=12;startSize=8;endSize=8;edgeStyle=orthogonalEdgeStyle;entryX=0.5;entryY=0;entryDx=0;entryDy=0;exitX=0.5;exitY=1;exitDx=0;exitDy=0;" parent="1" target="dKV6OIbtL0HbY0MgE-b8-83" edge="1">
          <mxGeometry width="50" height="50" relative="1" as="geometry">
            <mxPoint x="499.79" y="720" as="sourcePoint" />
            <mxPoint x="174.79000000000002" y="840" as="targetPoint" />
            <Array as="points">
              <mxPoint x="499.85999999999996" y="780" />
              <mxPoint x="179.86" y="780" />
            </Array>
          </mxGeometry>
        </mxCell>
        <mxCell id="dKV6OIbtL0HbY0MgE-b8-70" value="" style="endArrow=classic;html=1;rounded=0;fontSize=12;startSize=8;endSize=8;edgeStyle=orthogonalEdgeStyle;entryX=0;entryY=0.75;entryDx=0;entryDy=0;exitX=0;exitY=0.25;exitDx=0;exitDy=0;" parent="1" source="dKV6OIbtL0HbY0MgE-b8-83" target="dKV6OIbtL0HbY0MgE-b8-38" edge="1">
          <mxGeometry width="50" height="50" relative="1" as="geometry">
            <mxPoint x="649.93" y="1040" as="sourcePoint" />
            <mxPoint x="599.93" y="1090" as="targetPoint" />
            <Array as="points">
              <mxPoint x="30" y="850" />
              <mxPoint x="30" y="1148" />
            </Array>
          </mxGeometry>
        </mxCell>
        <mxCell id="dKV6OIbtL0HbY0MgE-b8-74" value="Ar_Condicionado" style="rounded=0;whiteSpace=wrap;html=1;fontSize=18;" parent="1" vertex="1">
          <mxGeometry x="274.86" y="1118" width="150" height="40" as="geometry" />
        </mxCell>
        <mxCell id="dKV6OIbtL0HbY0MgE-b8-76" value="&lt;u&gt;TipoVeiculo_Codigo(PK)(FK)&lt;/u&gt;" style="rounded=0;whiteSpace=wrap;html=1;fontSize=18;" parent="1" vertex="1">
          <mxGeometry x="64.86000000000001" y="970" width="240" height="40" as="geometry" />
        </mxCell>
        <mxCell id="P1GtwO3JQVll6UM6uVTv-1" style="edgeStyle=orthogonalEdgeStyle;rounded=0;orthogonalLoop=1;jettySize=auto;html=1;exitX=0.787;exitY=0.992;exitDx=0;exitDy=0;entryX=0.5;entryY=0;entryDx=0;entryDy=0;exitPerimeter=0;" edge="1" parent="1" source="dKV6OIbtL0HbY0MgE-b8-77" target="dKV6OIbtL0HbY0MgE-b8-76">
          <mxGeometry relative="1" as="geometry">
            <Array as="points">
              <mxPoint x="640" y="920" />
              <mxPoint x="185" y="920" />
            </Array>
          </mxGeometry>
        </mxCell>
        <mxCell id="dKV6OIbtL0HbY0MgE-b8-77" value="TipoVeiculo_Codigo1(FK1) + TipoVeiculo_Codigo2(FK2)&lt;span style=&quot;color: rgba(0, 0, 0, 0); font-family: monospace; font-size: 0px; text-align: start; text-wrap: nowrap;&quot;&gt;%3CmxGraphModel%3E%3Croot%3E%3CmxCell%20id%3D%220%22%2F%3E%3CmxCell%20id%3D%221%22%20parent%3D%220%22%2F%3E%3CmxCell%20id%3D%222%22%20value%3D%22TipoVeiculo_Codigo(FK)%22%20style%3D%22rounded%3D0%3BwhiteSpace%3Dwrap%3Bhtml%3D1%3BfontSize%3D18%3B%22%20vertex%3D%221%22%20parent%3D%221%22%3E%3CmxGeometry%20x%3D%22250%22%20y%3D%22840%22%20width%3D%22200%22%20height%3D%2240%22%20as%3D%22geometry%22%2F%3E%3C%2FmxCell%3E%3C%2Froot%3E%3C%2FmxGraphModel%3ETipo&lt;/span&gt;" style="rounded=0;whiteSpace=wrap;html=1;fontSize=18;" parent="1" vertex="1">
          <mxGeometry x="269.86" y="680" width="470" height="40" as="geometry" />
        </mxCell>
        <mxCell id="dKV6OIbtL0HbY0MgE-b8-78" value="Duracao" style="rounded=0;whiteSpace=wrap;html=1;fontSize=18;" parent="1" vertex="1">
          <mxGeometry x="219.86" y="40" width="80" height="40" as="geometry" />
        </mxCell>
        <mxCell id="dKV6OIbtL0HbY0MgE-b8-79" value="Cliente_NIF(FK)" style="rounded=0;whiteSpace=wrap;html=1;fontSize=18;" parent="1" vertex="1">
          <mxGeometry x="299.86" y="40" width="140" height="40" as="geometry" />
        </mxCell>
        <mxCell id="dKV6OIbtL0HbY0MgE-b8-80" value="Balcao_Numero(FK)" style="rounded=0;whiteSpace=wrap;html=1;fontSize=18;" parent="1" vertex="1">
          <mxGeometry x="439.86" y="40" width="170" height="40" as="geometry" />
        </mxCell>
        <mxCell id="dKV6OIbtL0HbY0MgE-b8-81" value="Veiculo_Matricula(FK)" style="rounded=0;whiteSpace=wrap;html=1;fontSize=18;" parent="1" vertex="1">
          <mxGeometry x="609.8599999999999" y="40" width="190" height="40" as="geometry" />
        </mxCell>
        <mxCell id="dKV6OIbtL0HbY0MgE-b8-83" value="&lt;u&gt;TipoVeiculo_Codigo(PK)(FK)&lt;/u&gt;" style="rounded=0;whiteSpace=wrap;html=1;fontSize=18;" parent="1" vertex="1">
          <mxGeometry x="59.86000000000001" y="840" width="240" height="40" as="geometry" />
        </mxCell>
        <mxCell id="dKV6OIbtL0HbY0MgE-b8-84" value="Combustivel" style="rounded=0;whiteSpace=wrap;html=1;fontSize=18;" parent="1" vertex="1">
          <mxGeometry x="499.85999999999996" y="840" width="110" height="40" as="geometry" />
        </mxCell>
        <mxCell id="fYPlbAsYE7eijf3G_97K-9" value="" style="endArrow=classic;html=1;rounded=0;fontSize=12;startSize=8;endSize=8;edgeStyle=orthogonalEdgeStyle;exitX=0;exitY=0.5;exitDx=0;exitDy=0;entryX=0;entryY=0.25;entryDx=0;entryDy=0;" parent="1" source="dKV6OIbtL0HbY0MgE-b8-76" target="dKV6OIbtL0HbY0MgE-b8-38" edge="1">
          <mxGeometry width="50" height="50" relative="1" as="geometry">
            <mxPoint x="39.859999999999836" y="990" as="sourcePoint" />
            <mxPoint x="39.859999999999836" y="1128" as="targetPoint" />
            <Array as="points">
              <mxPoint x="40" y="990" />
              <mxPoint x="40" y="1128" />
            </Array>
          </mxGeometry>
        </mxCell>
        <mxCell id="G5uvyAmmlISkjq15qe-R-1" value="TipoVeiculo_Codigo(FK)" style="rounded=0;whiteSpace=wrap;html=1;fontSize=18;" parent="1" vertex="1">
          <mxGeometry x="359.86" y="520" width="240" height="40" as="geometry" />
        </mxCell>
        <mxCell id="G5uvyAmmlISkjq15qe-R-2" value="" style="endArrow=classic;html=1;rounded=0;fontSize=12;startSize=8;endSize=8;edgeStyle=orthogonalEdgeStyle;entryX=0;entryY=0.5;entryDx=0;entryDy=0;exitX=0.5;exitY=1;exitDx=0;exitDy=0;" parent="1" source="G5uvyAmmlISkjq15qe-R-1" target="dKV6OIbtL0HbY0MgE-b8-38" edge="1">
          <mxGeometry width="50" height="50" relative="1" as="geometry">
            <mxPoint x="214.86" y="600" as="sourcePoint" />
            <mxPoint x="219.86" y="898" as="targetPoint" />
            <Array as="points">
              <mxPoint x="480" y="600" />
              <mxPoint x="10" y="600" />
              <mxPoint x="10" y="1138" />
            </Array>
          </mxGeometry>
        </mxCell>
      </root>
    </mxGraphModel>
  </diagram>
  <diagram id="dnWSx332YY_5WA-s4KzK" name="ex_3_3c">
    <mxGraphModel dx="2403" dy="1067" grid="1" gridSize="10" guides="1" tooltips="1" connect="1" arrows="1" fold="1" page="1" pageScale="1" pageWidth="827" pageHeight="1169" math="0" shadow="0">
      <root>
        <mxCell id="0" />
        <mxCell id="1" parent="0" />
        <mxCell id="KIDk1y8cZPQ14vUDMYIZ-1" value="&lt;b&gt;Comprovativo&lt;/b&gt;" style="text;strokeColor=none;fillColor=none;html=1;align=center;verticalAlign=middle;whiteSpace=wrap;rounded=0;fontSize=18;" parent="1" vertex="1">
          <mxGeometry x="116" y="370" width="116" height="50" as="geometry" />
        </mxCell>
        <mxCell id="KIDk1y8cZPQ14vUDMYIZ-2" value="&lt;b&gt;NaoEstudante&lt;/b&gt;" style="text;strokeColor=none;fillColor=none;html=1;align=center;verticalAlign=middle;whiteSpace=wrap;rounded=0;fontSize=18;" parent="1" vertex="1">
          <mxGeometry x="123" y="1000" width="116" height="50" as="geometry" />
        </mxCell>
        <mxCell id="KIDk1y8cZPQ14vUDMYIZ-3" value="&lt;b&gt;Estudante&lt;/b&gt;" style="text;strokeColor=none;fillColor=none;html=1;align=center;verticalAlign=middle;whiteSpace=wrap;rounded=0;fontSize=18;" parent="1" vertex="1">
          <mxGeometry x="99" y="840" width="100" height="50" as="geometry" />
        </mxCell>
        <mxCell id="KIDk1y8cZPQ14vUDMYIZ-4" value="&lt;b&gt;Participantes&lt;/b&gt;" style="text;strokeColor=none;fillColor=none;html=1;align=center;verticalAlign=middle;whiteSpace=wrap;rounded=0;fontSize=18;" parent="1" vertex="1">
          <mxGeometry x="118" y="680" width="116" height="50" as="geometry" />
        </mxCell>
        <mxCell id="KIDk1y8cZPQ14vUDMYIZ-5" value="&lt;b&gt;Artigo&lt;/b&gt;" style="text;strokeColor=none;fillColor=none;html=1;align=center;verticalAlign=middle;whiteSpace=wrap;rounded=0;fontSize=18;" parent="1" vertex="1">
          <mxGeometry x="117" width="76" height="50" as="geometry" />
        </mxCell>
        <mxCell id="KIDk1y8cZPQ14vUDMYIZ-6" value="&lt;b&gt;Autor&lt;/b&gt;" style="text;strokeColor=none;fillColor=none;html=1;align=center;verticalAlign=middle;whiteSpace=wrap;rounded=0;fontSize=18;" parent="1" vertex="1">
          <mxGeometry x="116" y="160" width="66" height="50" as="geometry" />
        </mxCell>
        <mxCell id="KIDk1y8cZPQ14vUDMYIZ-7" value="&lt;font style=&quot;font-size: 18px;&quot;&gt;&lt;u&gt;Nome&lt;/u&gt;&lt;/font&gt;" style="rounded=0;whiteSpace=wrap;html=1;fontSize=18;" parent="1" vertex="1">
          <mxGeometry x="123" y="720" width="100" height="40" as="geometry" />
        </mxCell>
        <mxCell id="6v5w0UMkXEIvrxbG6Fte-30" style="edgeStyle=orthogonalEdgeStyle;rounded=0;orthogonalLoop=1;jettySize=auto;html=1;exitX=0.5;exitY=0;exitDx=0;exitDy=0;entryX=0.5;entryY=1;entryDx=0;entryDy=0;" edge="1" parent="1" source="KIDk1y8cZPQ14vUDMYIZ-8" target="KIDk1y8cZPQ14vUDMYIZ-7">
          <mxGeometry relative="1" as="geometry" />
        </mxCell>
        <mxCell id="KIDk1y8cZPQ14vUDMYIZ-8" value="&lt;font style=&quot;font-size: 18px;&quot;&gt;&lt;u&gt;Nome&lt;/u&gt;&lt;/font&gt;" style="rounded=0;whiteSpace=wrap;html=1;fontSize=18;" parent="1" vertex="1">
          <mxGeometry x="317" y="880" width="86" height="40" as="geometry" />
        </mxCell>
        <mxCell id="6v5w0UMkXEIvrxbG6Fte-26" style="edgeStyle=orthogonalEdgeStyle;rounded=0;orthogonalLoop=1;jettySize=auto;html=1;exitX=0;exitY=0.5;exitDx=0;exitDy=0;entryX=0;entryY=0.5;entryDx=0;entryDy=0;" edge="1" parent="1" source="KIDk1y8cZPQ14vUDMYIZ-9" target="KIDk1y8cZPQ14vUDMYIZ-7">
          <mxGeometry relative="1" as="geometry">
            <Array as="points">
              <mxPoint x="90" y="1060" />
              <mxPoint x="90" y="740" />
            </Array>
          </mxGeometry>
        </mxCell>
        <mxCell id="KIDk1y8cZPQ14vUDMYIZ-9" value="&lt;font style=&quot;font-size: 18px;&quot;&gt;&lt;u&gt;Nome&lt;/u&gt;&lt;/font&gt;" style="rounded=0;whiteSpace=wrap;html=1;fontSize=18;" parent="1" vertex="1">
          <mxGeometry x="123" y="1040" width="100" height="40" as="geometry" />
        </mxCell>
        <mxCell id="KIDk1y8cZPQ14vUDMYIZ-10" value="&lt;font style=&quot;font-size: 18px;&quot;&gt;&lt;u&gt;Localizacao&lt;/u&gt;&lt;/font&gt;" style="rounded=0;whiteSpace=wrap;html=1;fontSize=18;" parent="1" vertex="1">
          <mxGeometry x="116" y="410" width="126" height="40" as="geometry" />
        </mxCell>
        <mxCell id="KIDk1y8cZPQ14vUDMYIZ-11" value="&lt;font style=&quot;font-size: 18px;&quot;&gt;&lt;u&gt;NumeroRegisto&lt;/u&gt;&lt;/font&gt;" style="rounded=0;whiteSpace=wrap;html=1;fontSize=18;" parent="1" vertex="1">
          <mxGeometry x="117" y="40" width="136" height="40" as="geometry" />
        </mxCell>
        <mxCell id="KIDk1y8cZPQ14vUDMYIZ-12" style="edgeStyle=none;curved=1;rounded=0;orthogonalLoop=1;jettySize=auto;html=1;exitX=0.5;exitY=1;exitDx=0;exitDy=0;fontSize=12;startSize=8;endSize=8;" parent="1" source="KIDk1y8cZPQ14vUDMYIZ-8" target="KIDk1y8cZPQ14vUDMYIZ-8" edge="1">
          <mxGeometry relative="1" as="geometry" />
        </mxCell>
        <mxCell id="KIDk1y8cZPQ14vUDMYIZ-13" value="&lt;font style=&quot;font-size: 18px;&quot;&gt;&lt;u&gt;Nome&lt;/u&gt;&lt;/font&gt;" style="rounded=0;whiteSpace=wrap;html=1;fontSize=18;" parent="1" vertex="1">
          <mxGeometry x="119" y="200" width="100" height="40" as="geometry" />
        </mxCell>
        <mxCell id="KIDk1y8cZPQ14vUDMYIZ-14" value="Morada" style="rounded=0;whiteSpace=wrap;html=1;fontSize=18;" parent="1" vertex="1">
          <mxGeometry x="223" y="720" width="100" height="40" as="geometry" />
        </mxCell>
        <mxCell id="KIDk1y8cZPQ14vUDMYIZ-15" value="Email" style="rounded=0;whiteSpace=wrap;html=1;fontSize=18;" parent="1" vertex="1">
          <mxGeometry x="219" y="200" width="106" height="40" as="geometry" />
        </mxCell>
        <mxCell id="KIDk1y8cZPQ14vUDMYIZ-16" value="Titulo" style="rounded=0;whiteSpace=wrap;html=1;fontSize=18;" parent="1" vertex="1">
          <mxGeometry x="253" y="40" width="70" height="40" as="geometry" />
        </mxCell>
        <mxCell id="6v5w0UMkXEIvrxbG6Fte-27" style="edgeStyle=orthogonalEdgeStyle;rounded=0;orthogonalLoop=1;jettySize=auto;html=1;exitX=0.5;exitY=1;exitDx=0;exitDy=0;entryX=0;entryY=1;entryDx=0;entryDy=0;" edge="1" parent="1" source="KIDk1y8cZPQ14vUDMYIZ-18" target="6v5w0UMkXEIvrxbG6Fte-2">
          <mxGeometry relative="1" as="geometry">
            <Array as="points">
              <mxPoint x="429" y="1120" />
              <mxPoint x="30" y="1120" />
              <mxPoint x="30" y="620" />
            </Array>
          </mxGeometry>
        </mxCell>
        <mxCell id="KIDk1y8cZPQ14vUDMYIZ-18" value="NomeInstituicao(FK)" style="rounded=0;whiteSpace=wrap;html=1;fontSize=18;" parent="1" vertex="1">
          <mxGeometry x="329" y="1040" width="200" height="40" as="geometry" />
        </mxCell>
        <mxCell id="KIDk1y8cZPQ14vUDMYIZ-19" value="Referencia" style="rounded=0;whiteSpace=wrap;html=1;fontSize=18;" parent="1" vertex="1">
          <mxGeometry x="223" y="1040" width="106" height="40" as="geometry" />
        </mxCell>
        <mxCell id="6v5w0UMkXEIvrxbG6Fte-21" style="edgeStyle=orthogonalEdgeStyle;rounded=0;orthogonalLoop=1;jettySize=auto;html=1;" edge="1" parent="1" source="KIDk1y8cZPQ14vUDMYIZ-21">
          <mxGeometry relative="1" as="geometry">
            <mxPoint x="180" y="620" as="targetPoint" />
            <Array as="points">
              <mxPoint x="639" y="660" />
              <mxPoint x="180" y="660" />
              <mxPoint x="180" y="620" />
            </Array>
          </mxGeometry>
        </mxCell>
        <mxCell id="KIDk1y8cZPQ14vUDMYIZ-21" value="NomeInstituicao(FK)" style="rounded=0;whiteSpace=wrap;html=1;fontSize=18;" parent="1" vertex="1">
          <mxGeometry x="549" y="720" width="180" height="40" as="geometry" />
        </mxCell>
        <mxCell id="KIDk1y8cZPQ14vUDMYIZ-22" value="DataInscricao" style="rounded=0;whiteSpace=wrap;html=1;fontSize=18;" parent="1" vertex="1">
          <mxGeometry x="423" y="720" width="126" height="40" as="geometry" />
        </mxCell>
        <mxCell id="KIDk1y8cZPQ14vUDMYIZ-23" value="Email" style="rounded=0;whiteSpace=wrap;html=1;fontSize=18;" parent="1" vertex="1">
          <mxGeometry x="323" y="720" width="100" height="40" as="geometry" />
        </mxCell>
        <mxCell id="6v5w0UMkXEIvrxbG6Fte-1" value="&lt;b&gt;Instituicao&lt;/b&gt;" style="text;strokeColor=none;fillColor=none;html=1;align=center;verticalAlign=middle;whiteSpace=wrap;rounded=0;fontSize=18;" vertex="1" parent="1">
          <mxGeometry x="123" y="535" width="106" height="50" as="geometry" />
        </mxCell>
        <mxCell id="6v5w0UMkXEIvrxbG6Fte-2" value="&lt;font style=&quot;font-size: 18px;&quot;&gt;&lt;u&gt;Nome&lt;/u&gt;&lt;/font&gt;" style="rounded=0;whiteSpace=wrap;html=1;fontSize=18;" vertex="1" parent="1">
          <mxGeometry x="119" y="580" width="100" height="40" as="geometry" />
        </mxCell>
        <mxCell id="6v5w0UMkXEIvrxbG6Fte-3" value="Endereco" style="rounded=0;whiteSpace=wrap;html=1;fontSize=18;" vertex="1" parent="1">
          <mxGeometry x="219" y="580" width="110" height="40" as="geometry" />
        </mxCell>
        <mxCell id="6v5w0UMkXEIvrxbG6Fte-28" style="edgeStyle=orthogonalEdgeStyle;rounded=0;orthogonalLoop=1;jettySize=auto;html=1;exitX=0.5;exitY=1;exitDx=0;exitDy=0;entryX=0.25;entryY=1;entryDx=0;entryDy=0;" edge="1" parent="1" source="6v5w0UMkXEIvrxbG6Fte-4" target="6v5w0UMkXEIvrxbG6Fte-2">
          <mxGeometry relative="1" as="geometry">
            <Array as="points">
              <mxPoint x="217" y="950" />
              <mxPoint x="60" y="950" />
              <mxPoint x="60" y="650" />
              <mxPoint x="144" y="650" />
            </Array>
          </mxGeometry>
        </mxCell>
        <mxCell id="6v5w0UMkXEIvrxbG6Fte-4" value="NomeInstituicao(FK)" style="rounded=0;whiteSpace=wrap;html=1;fontSize=18;" vertex="1" parent="1">
          <mxGeometry x="117" y="880" width="200" height="40" as="geometry" />
        </mxCell>
        <mxCell id="6v5w0UMkXEIvrxbG6Fte-5" value="NomeInstituicao(FK)" style="rounded=0;whiteSpace=wrap;html=1;fontSize=18;" vertex="1" parent="1">
          <mxGeometry x="325" y="200" width="200" height="40" as="geometry" />
        </mxCell>
        <mxCell id="6v5w0UMkXEIvrxbG6Fte-7" value="NomeAutor(FK)" style="rounded=0;whiteSpace=wrap;html=1;fontSize=18;" vertex="1" parent="1">
          <mxGeometry x="323" y="40" width="140" height="40" as="geometry" />
        </mxCell>
        <mxCell id="6v5w0UMkXEIvrxbG6Fte-31" style="edgeStyle=orthogonalEdgeStyle;rounded=0;orthogonalLoop=1;jettySize=auto;html=1;exitX=1;exitY=0.5;exitDx=0;exitDy=0;entryX=1;entryY=0.5;entryDx=0;entryDy=0;" edge="1" parent="1" source="6v5w0UMkXEIvrxbG6Fte-8" target="KIDk1y8cZPQ14vUDMYIZ-8">
          <mxGeometry relative="1" as="geometry">
            <Array as="points">
              <mxPoint x="760" y="430" />
              <mxPoint x="760" y="900" />
            </Array>
          </mxGeometry>
        </mxCell>
        <mxCell id="6v5w0UMkXEIvrxbG6Fte-8" value="NomeEstudante(FK)" style="rounded=0;whiteSpace=wrap;html=1;fontSize=18;" vertex="1" parent="1">
          <mxGeometry x="442" y="410" width="200" height="40" as="geometry" />
        </mxCell>
        <mxCell id="6v5w0UMkXEIvrxbG6Fte-32" style="edgeStyle=orthogonalEdgeStyle;rounded=0;orthogonalLoop=1;jettySize=auto;html=1;exitX=0.5;exitY=1;exitDx=0;exitDy=0;entryX=0;entryY=0;entryDx=0;entryDy=0;" edge="1" parent="1" source="6v5w0UMkXEIvrxbG6Fte-9" target="6v5w0UMkXEIvrxbG6Fte-2">
          <mxGeometry relative="1" as="geometry" />
        </mxCell>
        <mxCell id="6v5w0UMkXEIvrxbG6Fte-9" value="NomeInstituicao(FK)" style="rounded=0;whiteSpace=wrap;html=1;fontSize=18;" vertex="1" parent="1">
          <mxGeometry x="242" y="410" width="200" height="40" as="geometry" />
        </mxCell>
        <mxCell id="6v5w0UMkXEIvrxbG6Fte-14" value="" style="endArrow=classic;html=1;rounded=0;edgeStyle=elbowEdgeStyle;elbow=vertical;entryX=0.75;entryY=0;entryDx=0;entryDy=0;exitX=0.441;exitY=1.141;exitDx=0;exitDy=0;exitPerimeter=0;" edge="1" parent="1" source="6v5w0UMkXEIvrxbG6Fte-7" target="KIDk1y8cZPQ14vUDMYIZ-13">
          <mxGeometry width="50" height="50" relative="1" as="geometry">
            <mxPoint x="253" y="150" as="sourcePoint" />
            <mxPoint x="303" y="100" as="targetPoint" />
          </mxGeometry>
        </mxCell>
        <mxCell id="6v5w0UMkXEIvrxbG6Fte-16" value="" style="endArrow=classic;html=1;rounded=0;edgeStyle=orthogonalEdgeStyle;elbow=vertical;entryX=0;entryY=0.5;entryDx=0;entryDy=0;exitX=0.5;exitY=1;exitDx=0;exitDy=0;" edge="1" parent="1" source="6v5w0UMkXEIvrxbG6Fte-5" target="6v5w0UMkXEIvrxbG6Fte-2">
          <mxGeometry width="50" height="50" relative="1" as="geometry">
            <mxPoint x="571" y="290" as="sourcePoint" />
            <mxPoint x="380" y="404" as="targetPoint" />
            <Array as="points">
              <mxPoint x="425" y="340" />
              <mxPoint x="50" y="340" />
              <mxPoint x="50" y="600" />
            </Array>
          </mxGeometry>
        </mxCell>
      </root>
    </mxGraphModel>
  </diagram>
</mxfile>
